<?xml version="1.0" standalone="no"?>
<!DOCTYPE svg PUBLIC "-//W3C//DTD SVG 20010904//EN"
 "http://www.w3.org/TR/2001/REC-SVG-20010904/DTD/svg10.dtd">
<svg version="1.0" xmlns="http://www.w3.org/2000/svg"
 width="700.000000pt" height="700.000000pt" viewBox="0 0 700.000000 700.000000"
 preserveAspectRatio="xMidYMid meet">
<metadata>
Created by potrace 1.14, written by Peter Selinger 2001-2017
</metadata>
<g transform="translate(0.000000,700.000000) scale(0.100000,-0.100000)"
fill="#000000" stroke="none">
<path d="M3240 6989 c-1124 -85 -2128 -698 -2725 -1664 -473 -763 -628 -1720
-425 -2610 118 -516 349 -989 694 -1420 152 -191 456 -479 661 -627 294 -212
618 -377 955 -488 933 -308 1950 -212 2800 262 292 163 525 341 771 587 290
291 484 559 661 913 187 377 299 760 350 1203 7 61 12 220 12 355 0 249 -9
371 -45 585 -99 590 -341 1128 -728 1615 -99 125 -390 416 -516 517 -217 174
-402 292 -645 414 -563 281 -1196 405 -1820 358z m392 -1527 l23 -23 0 -1939
0 -1939 -23 -23 c-21 -21 -31 -23 -132 -23 -101 0 -111 2 -132 23 l-23 23 -2
1927 c-2 1533 0 1932 10 1952 21 41 53 51 159 48 86 -3 100 -6 120 -26z m-437
-657 l25 -24 0 -1281 0 -1281 -25 -24 c-23 -24 -31 -25 -133 -25 -104 0 -110
1 -133 26 l-24 26 0 1278 0 1278 24 26 c23 25 29 26 133 26 102 0 110 -1 133
-25z m-438 -217 l23 -21 0 -1066 0 -1065 -22 -23 c-20 -21 -29 -23 -132 -23
-99 0 -112 2 -133 22 l-23 21 0 1066 0 1065 22 23 c20 21 29 23 132 23 99 0
112 -2 133 -22z m1303 12 c10 -5 23 -24 29 -41 16 -45 16 -2073 0 -2118 -6
-17 -19 -36 -29 -41 -10 -6 -66 -10 -125 -10 -99 0 -107 2 -130 25 l-25 24 0
1061 0 1061 25 24 c23 23 31 25 130 25 59 0 115 -4 125 -10z m886 -234 l24
-27 0 -839 0 -839 -24 -27 c-21 -26 -30 -28 -112 -32 -105 -5 -158 11 -174 53
-14 36 -14 1654 0 1690 16 42 62 56 169 52 88 -3 95 -5 117 -31z m-2624 -214
l23 -23 0 -629 0 -629 -23 -23 c-21 -21 -31 -23 -131 -23 -102 0 -111 2 -135
24 l-26 24 0 627 0 627 23 20 c33 30 43 33 149 30 87 -2 100 -5 120 -25z
m2157 17 c17 -6 36 -19 41 -29 6 -12 10 -254 10 -642 -1 -495 -3 -627 -14
-640 -20 -27 -61 -38 -140 -38 -83 0 -132 14 -146 40 -11 21 -14 1247 -4 1275
4 10 21 23 38 31 38 16 171 18 215 3z m-2598 -238 l29 -29 0 -402 0 -402 -29
-29 c-29 -28 -32 -29 -131 -29 -99 0 -102 1 -131 29 l-29 29 0 402 0 402 29
29 c29 28 32 29 131 29 99 0 102 -1 131 -29z m3500 0 l29 -29 0 -402 0 -402
-29 -29 c-29 -28 -32 -29 -131 -29 -99 0 -102 1 -131 29 l-29 29 0 402 0 402
29 29 c29 28 32 29 131 29 99 0 102 -1 131 -29z m-3936 -106 l25 -24 0 -299
c0 -371 11 -346 -148 -350 -104 -4 -110 -3 -138 21 l-29 25 0 302 0 302 28 24
c26 22 37 24 133 24 98 0 107 -2 129 -25z m4372 -109 l28 -24 0 -192 0 -192
-28 -24 c-26 -22 -37 -24 -133 -24 -98 0 -107 2 -129 25 -25 24 -25 26 -25
215 0 189 0 191 25 215 22 23 31 25 129 25 96 0 107 -2 133 -24z m-4817 -96
c36 -19 52 -122 29 -189 -16 -46 -53 -61 -154 -61 -89 0 -137 14 -149 45 -3 9
-6 51 -6 93 0 64 3 79 22 99 20 21 29 23 130 23 60 0 118 -4 128 -10z m5254
-11 c24 -19 26 -26 26 -105 0 -77 -2 -87 -25 -109 -22 -23 -31 -25 -129 -25
-96 0 -107 2 -133 24 -26 23 -28 29 -28 106 0 77 2 83 28 106 26 22 37 24 131
24 89 0 107 -3 130 -21z"/>
</g>
</svg>
